# xmcd CD database file
#
# Track frame offsets:
#	150
#	10185
#	53997
#	74500
#	90232
#	106030
#	127525
#	168057
#	175270
#	200990
#	212107
#
# Disc length: 3214 seconds
#
# Revision: 3
# Processed by: cddbd v1.5.1PL0 Copyright (c) Steve Scherf et al.
# Submitted via: CDex 1.51
#
DISCID=8a0c8c0b
DTITLE=布袋寅泰 - HOTEI ROCK THE FUTURE 2005 MONSTER DRIVE PARTY 05.07.31 ZEPP NAGOYA
DYEAR=2005
DGENRE=Rock
TTITLE0=MC
TTITLE1=BATTLE WITHOUT HONOR OR HUMANITY
TTITLE2=CHASE！！！
TTITLE3=MC
TTITLE4=DO YOU REMEMBER ROCK'N'ROLL RADIO？
TTITLE5=RUSSIAN ROULETTE
TTITLE6=I'M FREE
TTITLE7=MC
TTITLE8=BEAT SWEET
TTITLE9=MC
TTITLE10=LONELY★WILD
EXTD=YEAR: 2005
EXTT0=
EXTT1=
EXTT2=
EXTT3=
EXTT4=
EXTT5=
EXTT6=
EXTT7=
EXTT8=
EXTT9=
EXTT10=
PLAYORDER=
